# xmcd
#
# Track frame offsets:
#	150
#	21131
#	35997
#	56344
#	72773
#	91642
#	97975
#	115735
#	135239
#	139597
#	156466
#
# Disc length: 2294 seconds
#
# Revision: 1
# Processed by: cddbd v1.5.2PL0 Copyright (c) Steve Scherf et al.
# Submitted via: audiograbber 1.83.01
#
DISCID=8708f40b
DTITLE=Glen Anthony Henry - Relax and Love
DYEAR=2008
DGENRE=Soul
TTITLE0=Fired Up
TTITLE1=Relax And Love
TTITLE2=Doin It
TTITLE3=I Don't Know
TTITLE4=Beautiful Vida
TTITLE5=Relax And Love (Reprise - Instrumental)
TTITLE6=Hope
TTITLE7=Go With It
TTITLE8=Relax And Love (Reprise - A Capella)
TTITLE9=That's My Baby
TTITLE10=I Believe
EXTD=
EXTT0=
EXTT1=
EXTT2=
EXTT3=
EXTT4=
EXTT5=
EXTT6=
EXTT7=
EXTT8=
EXTT9=
EXTT10=
PLAYORDER=
